<mxfile host="app.diagrams.net" modified="2023-04-16T23:32:06.986Z" agent="Mozilla/5.0 (Windows NT 10.0; Win64; x64) AppleWebKit/537.36 (KHTML, like Gecko) Chrome/112.0.0.0 Safari/537.36" etag="vuTj4NW3KpfvkOULD4CF" version="21.1.8" type="github">
  <diagram id="C5RBs43oDa-KdzZeNtuy" name="Page-1">
    <mxGraphModel dx="1735" dy="1105" grid="1" gridSize="10" guides="1" tooltips="1" connect="1" arrows="1" fold="1" page="1" pageScale="1" pageWidth="827" pageHeight="1169" math="0" shadow="0">
      <root>
        <mxCell id="WIyWlLk6GJQsqaUBKTNV-0" />
        <mxCell id="WIyWlLk6GJQsqaUBKTNV-1" parent="WIyWlLk6GJQsqaUBKTNV-0" />
        <mxCell id="P4AkVwjmFSuEI7K6igAC-5" value="Engine" style="swimlane;fontStyle=1;align=center;verticalAlign=top;childLayout=stackLayout;horizontal=1;startSize=26;horizontalStack=0;resizeParent=1;resizeParentMax=0;resizeLast=0;collapsible=1;marginBottom=0;whiteSpace=wrap;html=1;" vertex="1" parent="WIyWlLk6GJQsqaUBKTNV-1">
          <mxGeometry x="1584" y="130" width="236" height="120" as="geometry" />
        </mxCell>
        <mxCell id="P4AkVwjmFSuEI7K6igAC-6" value="+ current milage: int&lt;br&gt;+ last_serviced_milage : int&lt;br&gt;+ warning indicator: bool" style="text;strokeColor=none;fillColor=none;align=left;verticalAlign=top;spacingLeft=4;spacingRight=4;overflow=hidden;rotatable=0;points=[[0,0.5],[1,0.5]];portConstraint=eastwest;whiteSpace=wrap;html=1;" vertex="1" parent="P4AkVwjmFSuEI7K6igAC-5">
          <mxGeometry y="26" width="236" height="54" as="geometry" />
        </mxCell>
        <mxCell id="P4AkVwjmFSuEI7K6igAC-7" value="" style="line;strokeWidth=1;fillColor=none;align=left;verticalAlign=middle;spacingTop=-1;spacingLeft=3;spacingRight=3;rotatable=0;labelPosition=right;points=[];portConstraint=eastwest;strokeColor=inherit;" vertex="1" parent="P4AkVwjmFSuEI7K6igAC-5">
          <mxGeometry y="80" width="236" height="8" as="geometry" />
        </mxCell>
        <mxCell id="P4AkVwjmFSuEI7K6igAC-8" value="+engine_Should_be_serviced(): bool" style="text;strokeColor=none;fillColor=none;align=left;verticalAlign=top;spacingLeft=4;spacingRight=4;overflow=hidden;rotatable=0;points=[[0,0.5],[1,0.5]];portConstraint=eastwest;whiteSpace=wrap;html=1;" vertex="1" parent="P4AkVwjmFSuEI7K6igAC-5">
          <mxGeometry y="88" width="236" height="32" as="geometry" />
        </mxCell>
        <mxCell id="P4AkVwjmFSuEI7K6igAC-9" value="Battery" style="swimlane;fontStyle=1;align=center;verticalAlign=top;childLayout=stackLayout;horizontal=1;startSize=26;horizontalStack=0;resizeParent=1;resizeParentMax=0;resizeLast=0;collapsible=1;marginBottom=0;whiteSpace=wrap;html=1;" vertex="1" parent="WIyWlLk6GJQsqaUBKTNV-1">
          <mxGeometry x="250" y="130" width="250" height="120" as="geometry" />
        </mxCell>
        <mxCell id="P4AkVwjmFSuEI7K6igAC-10" value="+ last serviced date: date&lt;br&gt;" style="text;strokeColor=none;fillColor=none;align=left;verticalAlign=top;spacingLeft=4;spacingRight=4;overflow=hidden;rotatable=0;points=[[0,0.5],[1,0.5]];portConstraint=eastwest;whiteSpace=wrap;html=1;" vertex="1" parent="P4AkVwjmFSuEI7K6igAC-9">
          <mxGeometry y="26" width="250" height="54" as="geometry" />
        </mxCell>
        <mxCell id="P4AkVwjmFSuEI7K6igAC-11" value="" style="line;strokeWidth=1;fillColor=none;align=left;verticalAlign=middle;spacingTop=-1;spacingLeft=3;spacingRight=3;rotatable=0;labelPosition=right;points=[];portConstraint=eastwest;strokeColor=inherit;" vertex="1" parent="P4AkVwjmFSuEI7K6igAC-9">
          <mxGeometry y="80" width="250" height="8" as="geometry" />
        </mxCell>
        <mxCell id="P4AkVwjmFSuEI7K6igAC-12" value="+battery_Should_be_serviced(): bool" style="text;strokeColor=none;fillColor=none;align=left;verticalAlign=top;spacingLeft=4;spacingRight=4;overflow=hidden;rotatable=0;points=[[0,0.5],[1,0.5]];portConstraint=eastwest;whiteSpace=wrap;html=1;" vertex="1" parent="P4AkVwjmFSuEI7K6igAC-9">
          <mxGeometry y="88" width="250" height="32" as="geometry" />
        </mxCell>
        <mxCell id="P4AkVwjmFSuEI7K6igAC-13" value="Car" style="swimlane;fontStyle=1;align=center;verticalAlign=top;childLayout=stackLayout;horizontal=1;startSize=26;horizontalStack=0;resizeParent=1;resizeParentMax=0;resizeLast=0;collapsible=1;marginBottom=0;whiteSpace=wrap;html=1;" vertex="1" parent="WIyWlLk6GJQsqaUBKTNV-1">
          <mxGeometry x="810" y="289" width="180" height="120" as="geometry" />
        </mxCell>
        <mxCell id="P4AkVwjmFSuEI7K6igAC-14" value="+ engine : Engine&lt;br&gt;+ battery : Battery" style="text;strokeColor=none;fillColor=none;align=left;verticalAlign=top;spacingLeft=4;spacingRight=4;overflow=hidden;rotatable=0;points=[[0,0.5],[1,0.5]];portConstraint=eastwest;whiteSpace=wrap;html=1;" vertex="1" parent="P4AkVwjmFSuEI7K6igAC-13">
          <mxGeometry y="26" width="180" height="54" as="geometry" />
        </mxCell>
        <mxCell id="P4AkVwjmFSuEI7K6igAC-15" value="" style="line;strokeWidth=1;fillColor=none;align=left;verticalAlign=middle;spacingTop=-1;spacingLeft=3;spacingRight=3;rotatable=0;labelPosition=right;points=[];portConstraint=eastwest;strokeColor=inherit;" vertex="1" parent="P4AkVwjmFSuEI7K6igAC-13">
          <mxGeometry y="80" width="180" height="8" as="geometry" />
        </mxCell>
        <mxCell id="P4AkVwjmFSuEI7K6igAC-16" value="+ Should_be_serviced(): bool" style="text;strokeColor=none;fillColor=none;align=left;verticalAlign=top;spacingLeft=4;spacingRight=4;overflow=hidden;rotatable=0;points=[[0,0.5],[1,0.5]];portConstraint=eastwest;whiteSpace=wrap;html=1;" vertex="1" parent="P4AkVwjmFSuEI7K6igAC-13">
          <mxGeometry y="88" width="180" height="32" as="geometry" />
        </mxCell>
        <mxCell id="P4AkVwjmFSuEI7K6igAC-17" value="Capulet Engine" style="swimlane;fontStyle=1;align=center;verticalAlign=top;childLayout=stackLayout;horizontal=1;startSize=26;horizontalStack=0;resizeParent=1;resizeParentMax=0;resizeLast=0;collapsible=1;marginBottom=0;whiteSpace=wrap;html=1;" vertex="1" parent="WIyWlLk6GJQsqaUBKTNV-1">
          <mxGeometry x="1340" y="372" width="240" height="120" as="geometry" />
        </mxCell>
        <mxCell id="P4AkVwjmFSuEI7K6igAC-18" value="+ current milage: int&lt;br&gt;+ last_serviced_milage : int&lt;br&gt;" style="text;strokeColor=none;fillColor=none;align=left;verticalAlign=top;spacingLeft=4;spacingRight=4;overflow=hidden;rotatable=0;points=[[0,0.5],[1,0.5]];portConstraint=eastwest;whiteSpace=wrap;html=1;" vertex="1" parent="P4AkVwjmFSuEI7K6igAC-17">
          <mxGeometry y="26" width="240" height="54" as="geometry" />
        </mxCell>
        <mxCell id="P4AkVwjmFSuEI7K6igAC-19" value="" style="line;strokeWidth=1;fillColor=none;align=left;verticalAlign=middle;spacingTop=-1;spacingLeft=3;spacingRight=3;rotatable=0;labelPosition=right;points=[];portConstraint=eastwest;strokeColor=inherit;" vertex="1" parent="P4AkVwjmFSuEI7K6igAC-17">
          <mxGeometry y="80" width="240" height="8" as="geometry" />
        </mxCell>
        <mxCell id="P4AkVwjmFSuEI7K6igAC-20" value="+engine_Should_be_serviced(): bool" style="text;strokeColor=none;fillColor=none;align=left;verticalAlign=top;spacingLeft=4;spacingRight=4;overflow=hidden;rotatable=0;points=[[0,0.5],[1,0.5]];portConstraint=eastwest;whiteSpace=wrap;html=1;" vertex="1" parent="P4AkVwjmFSuEI7K6igAC-17">
          <mxGeometry y="88" width="240" height="32" as="geometry" />
        </mxCell>
        <mxCell id="P4AkVwjmFSuEI7K6igAC-21" value="Willoughby Engine" style="swimlane;fontStyle=1;align=center;verticalAlign=top;childLayout=stackLayout;horizontal=1;startSize=26;horizontalStack=0;resizeParent=1;resizeParentMax=0;resizeLast=0;collapsible=1;marginBottom=0;whiteSpace=wrap;html=1;" vertex="1" parent="WIyWlLk6GJQsqaUBKTNV-1">
          <mxGeometry x="1590" y="372" width="230" height="120" as="geometry" />
        </mxCell>
        <mxCell id="P4AkVwjmFSuEI7K6igAC-22" value="+ current milage: int&lt;br&gt;+ last_serviced_milage : int&lt;br&gt;" style="text;strokeColor=none;fillColor=none;align=left;verticalAlign=top;spacingLeft=4;spacingRight=4;overflow=hidden;rotatable=0;points=[[0,0.5],[1,0.5]];portConstraint=eastwest;whiteSpace=wrap;html=1;" vertex="1" parent="P4AkVwjmFSuEI7K6igAC-21">
          <mxGeometry y="26" width="230" height="54" as="geometry" />
        </mxCell>
        <mxCell id="P4AkVwjmFSuEI7K6igAC-23" value="" style="line;strokeWidth=1;fillColor=none;align=left;verticalAlign=middle;spacingTop=-1;spacingLeft=3;spacingRight=3;rotatable=0;labelPosition=right;points=[];portConstraint=eastwest;strokeColor=inherit;" vertex="1" parent="P4AkVwjmFSuEI7K6igAC-21">
          <mxGeometry y="80" width="230" height="8" as="geometry" />
        </mxCell>
        <mxCell id="P4AkVwjmFSuEI7K6igAC-24" value="+engine_Should_be_serviced(): bool" style="text;strokeColor=none;fillColor=none;align=left;verticalAlign=top;spacingLeft=4;spacingRight=4;overflow=hidden;rotatable=0;points=[[0,0.5],[1,0.5]];portConstraint=eastwest;whiteSpace=wrap;html=1;" vertex="1" parent="P4AkVwjmFSuEI7K6igAC-21">
          <mxGeometry y="88" width="230" height="32" as="geometry" />
        </mxCell>
        <mxCell id="P4AkVwjmFSuEI7K6igAC-25" value="Sternman Engine" style="swimlane;fontStyle=1;align=center;verticalAlign=top;childLayout=stackLayout;horizontal=1;startSize=26;horizontalStack=0;resizeParent=1;resizeParentMax=0;resizeLast=0;collapsible=1;marginBottom=0;whiteSpace=wrap;html=1;" vertex="1" parent="WIyWlLk6GJQsqaUBKTNV-1">
          <mxGeometry x="1830" y="372" width="238" height="120" as="geometry" />
        </mxCell>
        <mxCell id="P4AkVwjmFSuEI7K6igAC-26" value="+ warning indicator: bool" style="text;strokeColor=none;fillColor=none;align=left;verticalAlign=top;spacingLeft=4;spacingRight=4;overflow=hidden;rotatable=0;points=[[0,0.5],[1,0.5]];portConstraint=eastwest;whiteSpace=wrap;html=1;" vertex="1" parent="P4AkVwjmFSuEI7K6igAC-25">
          <mxGeometry y="26" width="238" height="54" as="geometry" />
        </mxCell>
        <mxCell id="P4AkVwjmFSuEI7K6igAC-27" value="" style="line;strokeWidth=1;fillColor=none;align=left;verticalAlign=middle;spacingTop=-1;spacingLeft=3;spacingRight=3;rotatable=0;labelPosition=right;points=[];portConstraint=eastwest;strokeColor=inherit;" vertex="1" parent="P4AkVwjmFSuEI7K6igAC-25">
          <mxGeometry y="80" width="238" height="8" as="geometry" />
        </mxCell>
        <mxCell id="P4AkVwjmFSuEI7K6igAC-28" value="+engine_Should_be_serviced(): bool" style="text;strokeColor=none;fillColor=none;align=left;verticalAlign=top;spacingLeft=4;spacingRight=4;overflow=hidden;rotatable=0;points=[[0,0.5],[1,0.5]];portConstraint=eastwest;whiteSpace=wrap;html=1;" vertex="1" parent="P4AkVwjmFSuEI7K6igAC-25">
          <mxGeometry y="88" width="238" height="32" as="geometry" />
        </mxCell>
        <mxCell id="P4AkVwjmFSuEI7K6igAC-29" value="Spindler Battery" style="swimlane;fontStyle=1;align=center;verticalAlign=top;childLayout=stackLayout;horizontal=1;startSize=26;horizontalStack=0;resizeParent=1;resizeParentMax=0;resizeLast=0;collapsible=1;marginBottom=0;whiteSpace=wrap;html=1;" vertex="1" parent="WIyWlLk6GJQsqaUBKTNV-1">
          <mxGeometry x="180" y="372" width="220" height="120" as="geometry" />
        </mxCell>
        <mxCell id="P4AkVwjmFSuEI7K6igAC-30" value="+ last serviced date: date&lt;br&gt;" style="text;strokeColor=none;fillColor=none;align=left;verticalAlign=top;spacingLeft=4;spacingRight=4;overflow=hidden;rotatable=0;points=[[0,0.5],[1,0.5]];portConstraint=eastwest;whiteSpace=wrap;html=1;" vertex="1" parent="P4AkVwjmFSuEI7K6igAC-29">
          <mxGeometry y="26" width="220" height="54" as="geometry" />
        </mxCell>
        <mxCell id="P4AkVwjmFSuEI7K6igAC-31" value="" style="line;strokeWidth=1;fillColor=none;align=left;verticalAlign=middle;spacingTop=-1;spacingLeft=3;spacingRight=3;rotatable=0;labelPosition=right;points=[];portConstraint=eastwest;strokeColor=inherit;" vertex="1" parent="P4AkVwjmFSuEI7K6igAC-29">
          <mxGeometry y="80" width="220" height="8" as="geometry" />
        </mxCell>
        <mxCell id="P4AkVwjmFSuEI7K6igAC-32" value="+battery_Should_be_serviced(): bool" style="text;strokeColor=none;fillColor=none;align=left;verticalAlign=top;spacingLeft=4;spacingRight=4;overflow=hidden;rotatable=0;points=[[0,0.5],[1,0.5]];portConstraint=eastwest;whiteSpace=wrap;html=1;" vertex="1" parent="P4AkVwjmFSuEI7K6igAC-29">
          <mxGeometry y="88" width="220" height="32" as="geometry" />
        </mxCell>
        <mxCell id="P4AkVwjmFSuEI7K6igAC-33" value="Nubbin Battery" style="swimlane;fontStyle=1;align=center;verticalAlign=top;childLayout=stackLayout;horizontal=1;startSize=26;horizontalStack=0;resizeParent=1;resizeParentMax=0;resizeLast=0;collapsible=1;marginBottom=0;whiteSpace=wrap;html=1;" vertex="1" parent="WIyWlLk6GJQsqaUBKTNV-1">
          <mxGeometry x="420" y="372" width="220" height="120" as="geometry" />
        </mxCell>
        <mxCell id="P4AkVwjmFSuEI7K6igAC-34" value="+ last serviced date: date&lt;br&gt;" style="text;strokeColor=none;fillColor=none;align=left;verticalAlign=top;spacingLeft=4;spacingRight=4;overflow=hidden;rotatable=0;points=[[0,0.5],[1,0.5]];portConstraint=eastwest;whiteSpace=wrap;html=1;" vertex="1" parent="P4AkVwjmFSuEI7K6igAC-33">
          <mxGeometry y="26" width="220" height="54" as="geometry" />
        </mxCell>
        <mxCell id="P4AkVwjmFSuEI7K6igAC-35" value="" style="line;strokeWidth=1;fillColor=none;align=left;verticalAlign=middle;spacingTop=-1;spacingLeft=3;spacingRight=3;rotatable=0;labelPosition=right;points=[];portConstraint=eastwest;strokeColor=inherit;" vertex="1" parent="P4AkVwjmFSuEI7K6igAC-33">
          <mxGeometry y="80" width="220" height="8" as="geometry" />
        </mxCell>
        <mxCell id="P4AkVwjmFSuEI7K6igAC-36" value="+ battery_Should_be_serviced(): bool" style="text;strokeColor=none;fillColor=none;align=left;verticalAlign=top;spacingLeft=4;spacingRight=4;overflow=hidden;rotatable=0;points=[[0,0.5],[1,0.5]];portConstraint=eastwest;whiteSpace=wrap;html=1;" vertex="1" parent="P4AkVwjmFSuEI7K6igAC-33">
          <mxGeometry y="88" width="220" height="32" as="geometry" />
        </mxCell>
        <mxCell id="P4AkVwjmFSuEI7K6igAC-37" value="" style="endArrow=block;endSize=16;endFill=0;html=1;rounded=0;exitX=0.5;exitY=0;exitDx=0;exitDy=0;entryX=0.273;entryY=1.05;entryDx=0;entryDy=0;entryPerimeter=0;" edge="1" parent="WIyWlLk6GJQsqaUBKTNV-1">
          <mxGeometry width="160" relative="1" as="geometry">
            <mxPoint x="1500" y="372" as="sourcePoint" />
            <mxPoint x="1629.14" y="251.60000000000002" as="targetPoint" />
          </mxGeometry>
        </mxCell>
        <mxCell id="P4AkVwjmFSuEI7K6igAC-38" value="" style="endArrow=block;endSize=16;endFill=0;html=1;rounded=0;exitX=0.5;exitY=0;exitDx=0;exitDy=0;entryX=0.48;entryY=1.081;entryDx=0;entryDy=0;entryPerimeter=0;" edge="1" parent="WIyWlLk6GJQsqaUBKTNV-1" source="P4AkVwjmFSuEI7K6igAC-21" target="P4AkVwjmFSuEI7K6igAC-8">
          <mxGeometry width="160" relative="1" as="geometry">
            <mxPoint x="1510" y="382" as="sourcePoint" />
            <mxPoint x="1654" y="262" as="targetPoint" />
          </mxGeometry>
        </mxCell>
        <mxCell id="P4AkVwjmFSuEI7K6igAC-39" value="" style="endArrow=block;endSize=16;endFill=0;html=1;rounded=0;exitX=0.5;exitY=0;exitDx=0;exitDy=0;entryX=0.747;entryY=1.131;entryDx=0;entryDy=0;entryPerimeter=0;" edge="1" parent="WIyWlLk6GJQsqaUBKTNV-1" source="P4AkVwjmFSuEI7K6igAC-25" target="P4AkVwjmFSuEI7K6igAC-8">
          <mxGeometry width="160" relative="1" as="geometry">
            <mxPoint x="1520" y="392" as="sourcePoint" />
            <mxPoint x="1649.14" y="271.6" as="targetPoint" />
          </mxGeometry>
        </mxCell>
        <mxCell id="P4AkVwjmFSuEI7K6igAC-40" value="" style="endArrow=block;endSize=16;endFill=0;html=1;rounded=0;exitX=0.5;exitY=0;exitDx=0;exitDy=0;entryX=0.304;entryY=1.056;entryDx=0;entryDy=0;entryPerimeter=0;" edge="1" parent="WIyWlLk6GJQsqaUBKTNV-1" source="P4AkVwjmFSuEI7K6igAC-29" target="P4AkVwjmFSuEI7K6igAC-12">
          <mxGeometry width="160" relative="1" as="geometry">
            <mxPoint x="-264" y="402" as="sourcePoint" />
            <mxPoint x="-134.8599999999999" y="281.6" as="targetPoint" />
          </mxGeometry>
        </mxCell>
        <mxCell id="P4AkVwjmFSuEI7K6igAC-41" value="" style="endArrow=block;endSize=16;endFill=0;html=1;rounded=0;exitX=0.5;exitY=0;exitDx=0;exitDy=0;entryX=0.651;entryY=1.081;entryDx=0;entryDy=0;entryPerimeter=0;" edge="1" parent="WIyWlLk6GJQsqaUBKTNV-1" source="P4AkVwjmFSuEI7K6igAC-33" target="P4AkVwjmFSuEI7K6igAC-12">
          <mxGeometry width="160" relative="1" as="geometry">
            <mxPoint x="-254" y="412" as="sourcePoint" />
            <mxPoint x="-124.8599999999999" y="291.6" as="targetPoint" />
          </mxGeometry>
        </mxCell>
        <mxCell id="P4AkVwjmFSuEI7K6igAC-42" value="Use" style="endArrow=open;endSize=12;dashed=1;html=1;rounded=0;entryX=0.013;entryY=0.104;entryDx=0;entryDy=0;entryPerimeter=0;" edge="1" parent="WIyWlLk6GJQsqaUBKTNV-1" target="P4AkVwjmFSuEI7K6igAC-5">
          <mxGeometry width="160" relative="1" as="geometry">
            <mxPoint x="990" y="344" as="sourcePoint" />
            <mxPoint x="1934" y="552" as="targetPoint" />
          </mxGeometry>
        </mxCell>
        <mxCell id="P4AkVwjmFSuEI7K6igAC-43" value="Use" style="endArrow=open;endSize=12;dashed=1;html=1;rounded=0;exitX=0;exitY=0.5;exitDx=0;exitDy=0;entryX=1;entryY=0;entryDx=0;entryDy=0;" edge="1" parent="WIyWlLk6GJQsqaUBKTNV-1" source="P4AkVwjmFSuEI7K6igAC-14" target="P4AkVwjmFSuEI7K6igAC-9">
          <mxGeometry width="160" relative="1" as="geometry">
            <mxPoint x="1373" y="367" as="sourcePoint" />
            <mxPoint x="1596" y="384" as="targetPoint" />
          </mxGeometry>
        </mxCell>
        <mxCell id="P4AkVwjmFSuEI7K6igAC-44" value="Palindrome" style="swimlane;fontStyle=1;align=center;verticalAlign=top;childLayout=stackLayout;horizontal=1;startSize=26;horizontalStack=0;resizeParent=1;resizeParentMax=0;resizeLast=0;collapsible=1;marginBottom=0;whiteSpace=wrap;html=1;" vertex="1" parent="WIyWlLk6GJQsqaUBKTNV-1">
          <mxGeometry x="822" y="584" width="180" height="116" as="geometry" />
        </mxCell>
        <mxCell id="P4AkVwjmFSuEI7K6igAC-45" value="+ indicator_light_on : bool&lt;br&gt;+ last_serviced_date : date" style="text;strokeColor=none;fillColor=none;align=left;verticalAlign=top;spacingLeft=4;spacingRight=4;overflow=hidden;rotatable=0;points=[[0,0.5],[1,0.5]];portConstraint=eastwest;whiteSpace=wrap;html=1;" vertex="1" parent="P4AkVwjmFSuEI7K6igAC-44">
          <mxGeometry y="26" width="180" height="50" as="geometry" />
        </mxCell>
        <mxCell id="P4AkVwjmFSuEI7K6igAC-46" value="" style="line;strokeWidth=1;fillColor=none;align=left;verticalAlign=middle;spacingTop=-1;spacingLeft=3;spacingRight=3;rotatable=0;labelPosition=right;points=[];portConstraint=eastwest;strokeColor=inherit;" vertex="1" parent="P4AkVwjmFSuEI7K6igAC-44">
          <mxGeometry y="76" width="180" height="8" as="geometry" />
        </mxCell>
        <mxCell id="P4AkVwjmFSuEI7K6igAC-47" value="+ Should_be_serviced(): bool" style="text;strokeColor=none;fillColor=none;align=left;verticalAlign=top;spacingLeft=4;spacingRight=4;overflow=hidden;rotatable=0;points=[[0,0.5],[1,0.5]];portConstraint=eastwest;whiteSpace=wrap;html=1;" vertex="1" parent="P4AkVwjmFSuEI7K6igAC-44">
          <mxGeometry y="84" width="180" height="32" as="geometry" />
        </mxCell>
        <mxCell id="P4AkVwjmFSuEI7K6igAC-48" value="Calliope" style="swimlane;fontStyle=1;align=center;verticalAlign=top;childLayout=stackLayout;horizontal=1;startSize=26;horizontalStack=0;resizeParent=1;resizeParentMax=0;resizeLast=0;collapsible=1;marginBottom=0;whiteSpace=wrap;html=1;" vertex="1" parent="WIyWlLk6GJQsqaUBKTNV-1">
          <mxGeometry x="428" y="584" width="180" height="116" as="geometry" />
        </mxCell>
        <mxCell id="P4AkVwjmFSuEI7K6igAC-49" value="+ Current_milage : int&lt;br&gt;+ last_serviced_date : date&lt;br&gt;+ last_serviced_milage : int" style="text;strokeColor=none;fillColor=none;align=left;verticalAlign=top;spacingLeft=4;spacingRight=4;overflow=hidden;rotatable=0;points=[[0,0.5],[1,0.5]];portConstraint=eastwest;whiteSpace=wrap;html=1;" vertex="1" parent="P4AkVwjmFSuEI7K6igAC-48">
          <mxGeometry y="26" width="180" height="50" as="geometry" />
        </mxCell>
        <mxCell id="P4AkVwjmFSuEI7K6igAC-50" value="" style="line;strokeWidth=1;fillColor=none;align=left;verticalAlign=middle;spacingTop=-1;spacingLeft=3;spacingRight=3;rotatable=0;labelPosition=right;points=[];portConstraint=eastwest;strokeColor=inherit;" vertex="1" parent="P4AkVwjmFSuEI7K6igAC-48">
          <mxGeometry y="76" width="180" height="8" as="geometry" />
        </mxCell>
        <mxCell id="P4AkVwjmFSuEI7K6igAC-51" value="+ Should_be_serviced(): bool" style="text;strokeColor=none;fillColor=none;align=left;verticalAlign=top;spacingLeft=4;spacingRight=4;overflow=hidden;rotatable=0;points=[[0,0.5],[1,0.5]];portConstraint=eastwest;whiteSpace=wrap;html=1;" vertex="1" parent="P4AkVwjmFSuEI7K6igAC-48">
          <mxGeometry y="84" width="180" height="32" as="geometry" />
        </mxCell>
        <mxCell id="P4AkVwjmFSuEI7K6igAC-52" value="Glissade" style="swimlane;fontStyle=1;align=center;verticalAlign=top;childLayout=stackLayout;horizontal=1;startSize=26;horizontalStack=0;resizeParent=1;resizeParentMax=0;resizeLast=0;collapsible=1;marginBottom=0;whiteSpace=wrap;html=1;" vertex="1" parent="WIyWlLk6GJQsqaUBKTNV-1">
          <mxGeometry x="628" y="584" width="180" height="116" as="geometry" />
        </mxCell>
        <mxCell id="P4AkVwjmFSuEI7K6igAC-53" value="+ Current_milage : int&lt;br style=&quot;border-color: var(--border-color);&quot;&gt;+ last_serviced_date : date&lt;br style=&quot;border-color: var(--border-color);&quot;&gt;+ last_serviced_milage : int" style="text;strokeColor=none;fillColor=none;align=left;verticalAlign=top;spacingLeft=4;spacingRight=4;overflow=hidden;rotatable=0;points=[[0,0.5],[1,0.5]];portConstraint=eastwest;whiteSpace=wrap;html=1;" vertex="1" parent="P4AkVwjmFSuEI7K6igAC-52">
          <mxGeometry y="26" width="180" height="50" as="geometry" />
        </mxCell>
        <mxCell id="P4AkVwjmFSuEI7K6igAC-54" value="" style="line;strokeWidth=1;fillColor=none;align=left;verticalAlign=middle;spacingTop=-1;spacingLeft=3;spacingRight=3;rotatable=0;labelPosition=right;points=[];portConstraint=eastwest;strokeColor=inherit;" vertex="1" parent="P4AkVwjmFSuEI7K6igAC-52">
          <mxGeometry y="76" width="180" height="8" as="geometry" />
        </mxCell>
        <mxCell id="P4AkVwjmFSuEI7K6igAC-55" value="+ Should_be_serviced(): bool" style="text;strokeColor=none;fillColor=none;align=left;verticalAlign=top;spacingLeft=4;spacingRight=4;overflow=hidden;rotatable=0;points=[[0,0.5],[1,0.5]];portConstraint=eastwest;whiteSpace=wrap;html=1;" vertex="1" parent="P4AkVwjmFSuEI7K6igAC-52">
          <mxGeometry y="84" width="180" height="32" as="geometry" />
        </mxCell>
        <mxCell id="P4AkVwjmFSuEI7K6igAC-56" value="Thovex" style="swimlane;fontStyle=1;align=center;verticalAlign=top;childLayout=stackLayout;horizontal=1;startSize=26;horizontalStack=0;resizeParent=1;resizeParentMax=0;resizeLast=0;collapsible=1;marginBottom=0;whiteSpace=wrap;html=1;" vertex="1" parent="WIyWlLk6GJQsqaUBKTNV-1">
          <mxGeometry x="1219" y="584" width="180" height="116" as="geometry" />
        </mxCell>
        <mxCell id="P4AkVwjmFSuEI7K6igAC-57" value="+ Current_milage : int&lt;br style=&quot;border-color: var(--border-color);&quot;&gt;+ last_serviced_date : date&lt;br style=&quot;border-color: var(--border-color);&quot;&gt;+ last_serviced_milage : int" style="text;strokeColor=none;fillColor=none;align=left;verticalAlign=top;spacingLeft=4;spacingRight=4;overflow=hidden;rotatable=0;points=[[0,0.5],[1,0.5]];portConstraint=eastwest;whiteSpace=wrap;html=1;" vertex="1" parent="P4AkVwjmFSuEI7K6igAC-56">
          <mxGeometry y="26" width="180" height="50" as="geometry" />
        </mxCell>
        <mxCell id="P4AkVwjmFSuEI7K6igAC-58" value="" style="line;strokeWidth=1;fillColor=none;align=left;verticalAlign=middle;spacingTop=-1;spacingLeft=3;spacingRight=3;rotatable=0;labelPosition=right;points=[];portConstraint=eastwest;strokeColor=inherit;" vertex="1" parent="P4AkVwjmFSuEI7K6igAC-56">
          <mxGeometry y="76" width="180" height="8" as="geometry" />
        </mxCell>
        <mxCell id="P4AkVwjmFSuEI7K6igAC-59" value="+ Should_be_serviced(): bool" style="text;strokeColor=none;fillColor=none;align=left;verticalAlign=top;spacingLeft=4;spacingRight=4;overflow=hidden;rotatable=0;points=[[0,0.5],[1,0.5]];portConstraint=eastwest;whiteSpace=wrap;html=1;" vertex="1" parent="P4AkVwjmFSuEI7K6igAC-56">
          <mxGeometry y="84" width="180" height="32" as="geometry" />
        </mxCell>
        <mxCell id="P4AkVwjmFSuEI7K6igAC-60" value="Rorschach" style="swimlane;fontStyle=1;align=center;verticalAlign=top;childLayout=stackLayout;horizontal=1;startSize=26;horizontalStack=0;resizeParent=1;resizeParentMax=0;resizeLast=0;collapsible=1;marginBottom=0;whiteSpace=wrap;html=1;" vertex="1" parent="WIyWlLk6GJQsqaUBKTNV-1">
          <mxGeometry x="1025" y="584" width="180" height="116" as="geometry" />
        </mxCell>
        <mxCell id="P4AkVwjmFSuEI7K6igAC-61" value="+ Current_milage : int&lt;br style=&quot;border-color: var(--border-color);&quot;&gt;+ last_serviced_date : date&lt;br style=&quot;border-color: var(--border-color);&quot;&gt;+ last_serviced_milage : int" style="text;strokeColor=none;fillColor=none;align=left;verticalAlign=top;spacingLeft=4;spacingRight=4;overflow=hidden;rotatable=0;points=[[0,0.5],[1,0.5]];portConstraint=eastwest;whiteSpace=wrap;html=1;" vertex="1" parent="P4AkVwjmFSuEI7K6igAC-60">
          <mxGeometry y="26" width="180" height="50" as="geometry" />
        </mxCell>
        <mxCell id="P4AkVwjmFSuEI7K6igAC-62" value="" style="line;strokeWidth=1;fillColor=none;align=left;verticalAlign=middle;spacingTop=-1;spacingLeft=3;spacingRight=3;rotatable=0;labelPosition=right;points=[];portConstraint=eastwest;strokeColor=inherit;" vertex="1" parent="P4AkVwjmFSuEI7K6igAC-60">
          <mxGeometry y="76" width="180" height="8" as="geometry" />
        </mxCell>
        <mxCell id="P4AkVwjmFSuEI7K6igAC-63" value="+ Should_be_serviced(): bool" style="text;strokeColor=none;fillColor=none;align=left;verticalAlign=top;spacingLeft=4;spacingRight=4;overflow=hidden;rotatable=0;points=[[0,0.5],[1,0.5]];portConstraint=eastwest;whiteSpace=wrap;html=1;" vertex="1" parent="P4AkVwjmFSuEI7K6igAC-60">
          <mxGeometry y="84" width="180" height="32" as="geometry" />
        </mxCell>
        <mxCell id="P4AkVwjmFSuEI7K6igAC-64" value="" style="endArrow=block;endSize=16;endFill=0;html=1;rounded=0;exitX=0.5;exitY=0;exitDx=0;exitDy=0;entryX=0;entryY=1;entryDx=0;entryDy=0;" edge="1" parent="WIyWlLk6GJQsqaUBKTNV-1" target="P4AkVwjmFSuEI7K6igAC-13">
          <mxGeometry width="160" relative="1" as="geometry">
            <mxPoint x="520" y="585.4" as="sourcePoint" />
            <mxPoint x="820" y="414" as="targetPoint" />
          </mxGeometry>
        </mxCell>
        <mxCell id="P4AkVwjmFSuEI7K6igAC-65" value="" style="endArrow=block;endSize=16;endFill=0;html=1;rounded=0;exitX=0.5;exitY=0;exitDx=0;exitDy=0;entryX=0.25;entryY=1;entryDx=0;entryDy=0;" edge="1" parent="WIyWlLk6GJQsqaUBKTNV-1" target="P4AkVwjmFSuEI7K6igAC-13">
          <mxGeometry width="160" relative="1" as="geometry">
            <mxPoint x="720" y="584" as="sourcePoint" />
            <mxPoint x="849.1400000000001" y="463.6" as="targetPoint" />
          </mxGeometry>
        </mxCell>
        <mxCell id="P4AkVwjmFSuEI7K6igAC-66" value="" style="endArrow=block;endSize=16;endFill=0;html=1;rounded=0;exitX=0.5;exitY=0;exitDx=0;exitDy=0;entryX=0.5;entryY=1;entryDx=0;entryDy=0;" edge="1" parent="WIyWlLk6GJQsqaUBKTNV-1" target="P4AkVwjmFSuEI7K6igAC-13">
          <mxGeometry width="160" relative="1" as="geometry">
            <mxPoint x="910" y="584" as="sourcePoint" />
            <mxPoint x="1039.14" y="463.6" as="targetPoint" />
          </mxGeometry>
        </mxCell>
        <mxCell id="P4AkVwjmFSuEI7K6igAC-67" value="" style="endArrow=block;endSize=16;endFill=0;html=1;rounded=0;exitX=0.5;exitY=0;exitDx=0;exitDy=0;entryX=0.75;entryY=1;entryDx=0;entryDy=0;" edge="1" parent="WIyWlLk6GJQsqaUBKTNV-1" target="P4AkVwjmFSuEI7K6igAC-13">
          <mxGeometry width="160" relative="1" as="geometry">
            <mxPoint x="1120" y="584" as="sourcePoint" />
            <mxPoint x="1249.14" y="463.6" as="targetPoint" />
          </mxGeometry>
        </mxCell>
        <mxCell id="P4AkVwjmFSuEI7K6igAC-68" value="" style="endArrow=block;endSize=16;endFill=0;html=1;rounded=0;exitX=0.5;exitY=0;exitDx=0;exitDy=0;entryX=1;entryY=1;entryDx=0;entryDy=0;" edge="1" parent="WIyWlLk6GJQsqaUBKTNV-1" source="P4AkVwjmFSuEI7K6igAC-56" target="P4AkVwjmFSuEI7K6igAC-13">
          <mxGeometry width="160" relative="1" as="geometry">
            <mxPoint x="1550" y="637" as="sourcePoint" />
            <mxPoint x="1679.14" y="516.6" as="targetPoint" />
          </mxGeometry>
        </mxCell>
      </root>
    </mxGraphModel>
  </diagram>
</mxfile>
